<svg viewBox="0 0 630 630" xmlns="http://www.w3.org/2000/svg"><path fill="#f7df1e" d="M0 0h630v630H0z"/><g fill-rule="evenodd" stroke="#000"><path d="M-395.62 530.58c-.47 3.748-.808 9.095 2.41 11.071 2.412 1.48 5.59-1.088 8.215-2.143 1.929-.774 3.465-2.409 5.446-3.036 2.996-.947 6.275-1.493 9.375-.982 1.617.267 2.841 1.837 4.465 2.054 1.076.144 2.13-.617 3.214-.536 1.248.093 2.413.686 3.571 1.16 1.294.53 2.415 1.463 3.75 1.876 1.464.453 3.046.354 4.554.625 1.35.242 2.647.939 4.018.893 1.054-.036 2.033-.567 3.036-.893 1.262-.41 2.427-1.23 3.75-1.34 2.018-.167 5.982 1.072 5.982 1.072s-3.842.504-5.715.982c-2.316.591-4.663 1.627-7.053 1.607-3.046-.025-4.995-2.338-9.107-1.34-1.013.247-2.71-.866-3.125.09-.822 1.896 2.54 4.788 4.285 5.893 1.807 1.144 3.86.791 5.982.536 1.364-.164 2.26-1.646 3.572-2.054 1.768-.549 2.408-.391 4.196.09.91.244 3.661 1.07 3.661 1.07s-1.667-.024-2.5 0c-1.52.046-3.107-.2-4.554.269-1.846.597-4.422 2.287-6.339 2.589-2.339.369-3.234-.916-5.357-1.964-1.084-.535-2.187-.578-2.946-1.518-.728-.9-.752-2.257-1.518-3.125-1.41-1.597-3.427-2.583-5.357-3.482-1.298-.605-2.686-1.09-4.108-1.25-1.245-.14-2.599-.23-3.75.268-.928.4-2.126 1.048-2.232 2.053-.145 1.38 1.373 2.473 2.411 3.393 1.495 1.325 3.477 1.972 5.268 2.857.848.42 1.664.963 2.59 1.16 1.542.33 3.2-.376 4.731 0 1.37.338 2.607 1.139 3.75 1.965 1.041.752 2.056 1.61 2.768 2.679.497.745.384 1.833.982 2.5 1.93 2.15 7.679 4.018 7.679 4.018s-6.34-.592-8.66-2.5c-.854-.702-.83-2.084-1.518-2.947-.607-.759-1.295-1.847-2.143-2.321-.904-.506-2.123-1.258-3.125-1.518-1.407-.364-2.799.576-4.197.179-2.945-.837-6.463-5.525-8.571-3.304-1.055 1.111.28 3.21 1.16 4.464.618.879 2.148 1.362 3.036 1.965 2.083 1.413 4.834 1.652 6.875 3.125 1.35.973 3.572 2.006 3.393 3.66-.228 2.111 1.059 3.338 2.947 4.197 1.313.597 1.607 4.018 1.607 4.018s-2.63-2.789-3.929-4.197c-1.53-1.656-1.487-3.932-3.304-5.268-1.93-1.42-6.251-4.623-7.767-2.767-1.078 1.318 2.07 2.704 3.035 4.107 1.002 1.455 2.23 2.813 2.857 4.464.472 1.24.484 2.61.625 3.929-.532 3.09.038 4.814-1.339 7.321 0 0 .05-3.339-.09-5-.183-2.19-.114-4.5-.981-6.518-.746-1.734-2.15-3.128-3.482-4.464-.989-.99-2.51-1.438-3.304-2.59-.796-1.154-.532-2.812-1.25-4.017-.873-1.465-2.14-2.735-3.571-3.661-.799-.517-1.733-.888-2.679-.982-2.337-.233-4.616 1.124-6.964 1.071-1.366-.03-3.204-1.9-4.018-.803-1.167 1.571 1.512 3.677 2.768 5.178 1.849 2.21 5.175 2.968 6.785 5.357 1.664 2.468 1.128 5.931 2.5 8.572.44.845.967 1.745 1.786 2.232 1.455.865 3.516.079 5 .893 2.235 1.225 5.179 5.625 5.179 5.625-1.806-1.73-3.337-4.1-5.804-4.286l.893 7.054c.178.052-.767-3.545-2.41-6.697-.895-1.715-3.688-1.526-5-2.946-.922-.997-1.143-2.466-1.786-3.66-.804-1.493-1.528-3.055-2.59-4.376-.382-.476-.745-1.39-1.339-1.25-1.577.372-.65 3.317-1.696 4.554-.577.682-1.821.599-2.322 1.339-.354.523-.431 1.265-.268 1.875.412 1.535 1.197 3.08 2.054 4.42.775 1.21 2.701 2.224 2.634 3.66-.103 2.205-1.119 4.165-2.366 5.938-1.765 2.508-3.304 4.286-3.304 4.286s3.12-5.276 3.214-8.215c.047-1.467-.119-2.948-.892-4.196-.7-1.127-2.67-1.604-3.304-2.768-.654-1.2-1-2.666-.804-4.018.266-1.831 3.112-2.639 3.616-4.42.244-.86-.571-2.318-.848-3.17-.502-1.547-1.864-2.721-3.125-3.75-.733-.596-1.555-1.315-2.5-1.338-1.317-.032-2.512.912-3.571 1.696-1.1.815-2.182 1.798-2.768 3.036-.528 1.114-.606 2.43-.536 3.66.157 2.74-.309 7.746 2.277 9.108 4.662 2.456 6.295 13.929 6.295 13.929s-3.536-11.242-7.344-10.268c-3.495.893.759 11.607.759 11.607s-2.194-5.472-3.014-9.197c-.407-1.851.883-6.335.045-8.036-.625-1.268-.767-3.334-2.143-3.66-1.863-.443-3.511 1.728-4.821 3.125-.958 1.02-1.797 2.285-2.054 3.66-.31 1.655.512 3.33.714 5 .397 3.267.982 9.822.982 9.822s-1.02-2.494-.49-6.563c.091-.704-2.413-6.246-2.188-6.92.549-1.64-.168-3.53.357-5.178.434-1.362 1.557-2.401 2.232-3.66.466-.869.662-1.888 1.25-2.68.667-.896 1.92-1.276 2.5-2.231a8.904 8.904 0 0 0 1.25-4.911c-.107-2.426-.027-6.41-2.41-6.875-2.608-.508-3.408 4.085-5.268 5.982-1.696 1.73-3.468 3.395-5.357 4.91-.85.683-2.05.986-2.679 1.876-.642.908-.93 2.103-.893 3.214.04 1.167.76 2.208 1.16 3.304.547 1.495 2.33 3.003 1.697 4.464-1.695 3.92-4.767 13.057-4.375 13.214 0 0 1.757-5.96 1.697-9.018-.037-1.862 1.085-3.641.625-5.446-.49-1.917-2.924-3.816-3.483-5.715-.228-.776.022-1.982-.714-2.321-1.767-.814-3.703 1.296-5.357 2.321-1.06.657-2.148 1.386-2.857 2.411-.862 1.247-1.018 2.855-1.518 4.286-.602 1.724-.611 3.78-1.786 5.178-1.225 1.46-5 2.768-5 2.768s3.99-3.23 5.09-5.357c1.124-2.175.064-5.288 1.428-7.321 1.145-1.706 3.825-2.043 4.822-3.84.377-.68.837-1.79.267-2.321-1.791-1.673-5.2-.034-7.232 1.34-1.197.808-2.353 2.044-3.482 2.946-1.802 1.439-4.488.9-5.357 3.035-1.537 3.777-9.107 3.929-9.107 3.929s6.807-1.215 5.803-4.196c-1.305-3.877-10.089.089-10.089.089-.002-.005 7.63-5.848 14.286-2.59 1.56.764 2.978-1.783 4.465-2.678 1.876-1.129 3.447-3.162 5.625-3.393 3.109-.33 6.571.467 9.196-2.053 1.525-1.464 4.552.949 6.34-.18 1.159-.73 1.453-2.355 1.874-3.66.426-1.318 1.631-3.155.625-4.107-2.009-1.902-5.435 1.048-8.125 1.697-2.85.686-5.588 1.85-8.482 2.32-2.648.432-5.382.052-8.035.447-1.485.222-3.013.442-4.375 1.072-1.567.725-2.621 2.33-4.197 3.035-2.78 1.247-5.91 1.55-8.928 1.965-3.513-.324-6.274-.436-10.09-.625 0 0 6.863-.038 10.18-.804 1.9-.439 4.693-.268 6.428-1.16 1.703-.876 3.854-2.192 3.84-4.108-.018-2.353-2.204-4.17-4.286-5.267-1.981-1.044-5.653-.768-7.857-1.161-2.055-.367-4.304-.395-6.25.357-.75.29-1.296.96-1.875 1.518-1.793 1.727-4.91 5.625-4.91 5.625s5.82-5.312 4.017-7.5c-1.09-1.322-4.91 1.518-4.91 1.518s3.087-2.419 4.91-3.036c1.983-.672 3.71.701 5.803.714 2.666.017 5.797-1.05 8.393-.446 3.604.837 6.84 2.926 10.446 3.75 2.51.573 5.403 2.084 7.947 1.696 3.492-.533 7.075-1.464 9.91-3.571.594-.441 1.238-2.52.983-3.214-1.627-4.417-9.226-2.127-13.93-2.322-2.894-.12-5.764.752-8.66.714-3.024-.04-5.994-.974-9.018-.982-2.603-.007-5.265.129-7.679-.714-2.01-.702-3.865-.705-6.16 1.786-1.284 1.392-6.697 5.625-6.697 5.625s4.642-5.925 6.875-7.411c1.584-1.053 3.734-2.523 5.447-1.696 3.234 1.56 6.168 1.57 8.928.535 1.843-.69 3.837 1.124 5.804 1.072 1.53-.04 4.375.456 4.464-1.072.232-3.957-7.657-2.253-11.16-4.107-2.943-1.557-5.919-3.247-9.197-1.964-1.802.705-3.922.447-5.804 0-4.297-1.021-8.648 6.494-8.571 6.607 0 0 3.04-6.032 5.09-7.41.712-.48 1.65-.49 2.5-.626 2.062-.329 4.209-.892 6.25-.446 2.678.585 5.288 1.467 7.767 1.25 3.323-.292 6.568 4.12 11.161 3.66 1.576-.157 2.774 1.582 4.286 2.054 3.423 1.069 7.048 1.427 10.625 1.697 3.68.277 7.416.417 11.07-.09 1.896-.263 3.974-.413 5.536-1.517 1.362-.963 2.15-2.597 2.858-4.108.523-1.118 1.145-2.347.982-3.571-.225-1.68-1.62-2.985-2.59-4.375-1.294-1.857-2.769-3.587-4.285-5.268-1.382-1.531-2.583-3.355-4.375-4.375-2.83-1.61-6.287-1.702-9.465-2.41-5.087-1.135-10.176-2.379-15.357-2.947-2.042-.224-4.107-.229-6.16-.179-2.298.057-4.6.858-6.875.536-1.763-.25-3.396-1.104-5-1.875-4.56-2.191-13.036-7.768-13.036-7.768s11.363 7.361 17.857 8.482c3.183.55 6.412-.926 9.643-.982 3.549-.06 7.096.324 10.625.715 4.64.514 9.47.498 13.839 2.142 4.257 1.603 8.207 10.442 11.518 7.322 2.675-2.522-2.975-6.842-5.358-9.643-2.8-3.293-6.296-6.134-10.179-8.036-3.11-1.524-6.653-2.056-10.089-2.5-4.132-.534-8.354.246-12.5-.178-3.135-.322-6.137-1.64-9.285-1.786-2.45-.114-4.882.956-7.322.714-2.445-.242-7.053-2.143-7.053-2.143s4.32.94 6.518.982c2.425.048 4.81-.934 7.232-.803 2.466.133 4.778 1.327 7.232 1.607 3.549.405 7.146-.054 10.714.09 4.144.166 8.369-.038 12.411.892 2.343.54 4.65 1.418 6.696 2.679 2.909 1.791 5.282 4.352 7.679 6.785.963.978 1.63 2.24 2.679 3.125.265.224.586.699.892.536 1.448-.768.715-3.333.268-4.91-.868-3.067-3.153-5.645-5.446-7.858-2.697-2.602-6.153-4.315-9.464-6.071-2.403-1.275-5.096-1.575-7.69-2.394-2.349-.741-4.58-2.252-7.043-2.338-4.353-.152-12.946 1.785-12.946 1.785s4.625-2.025 7.054-2.678c1.602-.43 3.253-.858 4.91-.804 4.611.152 11.208 7.139 13.483 3.125 1.141-2.014-3.976-3.317-4.064-5.631-.53-3.344-7.51-4.567-10.999-4.861-2.443-.562-4.931-1.232-7.437-1.293-1.31-.032-2.631-.091-3.929.089-2.588.36-7.589 1.964-7.589 1.964s3.03-1.642 4.643-2.232c1.56-.57 3.234-.57 4.885-.745 2.103-.223 4.179.689 6.276.963 2.327.303 7.284 2.629 6.875.318-.424-2.394-17.921-10.28-17.857-10.446 0 0 13.796 5.126 17.768 8.928 1.73 1.656 4.316 2.211 6.071 3.84 1.794 1.664 2.791 4.028 4.375 5.893.886 1.042 1.751 2.141 2.857 2.946 1.744 1.269 3.87 1.906 5.804 2.857 1.696.834 3.536 1.423 5.09 2.5 1.781 1.236 3.095 3.042 4.732 4.464 1.726 1.5 3.305 5.296 5.357 4.286 1.415-.697.504-3.27-.09-4.732-.966-2.38-3.398-3.863-5.267-5.625-1.83-1.725-3.991-3.078-5.804-4.821-2.856-2.747-5.4-5.805-7.946-8.84-2.018-2.403-3.597-5.18-5.804-7.41-2.145-2.168-4.488-4.215-7.143-5.715-2.845-1.606-9.196-3.393-9.196-3.393s7.48.881 10.804 2.5c2.682 1.308 4.842 3.527 6.964 5.625 2.06 2.037 2.94 7.98 5.536 6.697 2.492-1.231-1.135-5.446-1.875-8.125-.542-1.96-1.034-3.953-1.875-5.804a24.792 24.792 0 0 0-2.947-4.91c-1.558-2.014-5.357-5.447-5.357-5.447s4.762 3.558 6.786 5.714c1.165 1.242 2.229 2.609 3.036 4.108 1.066 1.981 1.663 4.187 2.321 6.339.798 2.61.966 5.407 1.964 7.946a23.879 23.879 0 0 0 3.125 5.625c1.445 1.916 3.277 3.518 5.09 5.09.787.682 1.68 2.518 2.5 1.875 2.138-1.681-2.732-4.824-3.215-7.5-.438-2.434.537-4.944.358-7.411-.102-1.391-.917-2.717-.804-4.107.09-1.108 1.142-2.014 1.16-3.125.02-1.13-.517-2.23-1.07-3.214-1.739-3.093-5.105-5.051-6.876-8.125-1.104-1.917-2.232-6.25-2.232-6.25s2.396 5.327 4.286 7.5c1.086 1.248 2.837 1.791 3.928 3.035 1.522 1.735 2.858 3.761 3.483 5.982.773 2.752-.629 5.83.178 8.572.128.436.26 1.164.714 1.16 2.39-.018 2.347-4.165 3.661-6.16 1.559-2.367 3.71-4.352 5-6.875.87-1.701 1.513-3.556 1.786-5.447.425-2.947-.268-8.928-.268-8.928s1.365 4.6 1.34 6.964c-.023 1.979-.497 3.974-1.25 5.804-1.347 3.267-4.086 5.793-5.715 8.928-1.483 2.855-2.64 5.879-3.66 8.929-.372 1.109-.922 2.224-.894 3.393.044 1.778.839 3.485 1.607 5.089.696 1.452 1.72 2.725 2.68 4.018.641.866 1.111 1.973 2.053 2.5.76.425 1.767.645 2.589.357 1.55-.543 2.313-2.334 3.393-3.571.751-.862 1.82-1.582 2.143-2.679.649-2.21-.507-4.58-.715-6.875-.244-2.705-1.045-5.441-.625-8.125.488-3.112 1.988-6.027 3.572-8.75.266-.458.667-.824.982-1.25 1.208-1.632 2.434-3.26 3.482-5a22.877 22.877 0 0 0 1.429-2.768c.821-1.91 2.053-5.893 2.053-5.893s-.994 6.27-2.321 9.107c-.948 2.028-2.807 3.51-3.929 5.447a19.622 19.622 0 0 0-1.696 3.75c-.592 1.82-1.126 3.71-1.16 5.625-.036 1.962.45 3.915.981 5.803.348 1.235.157 3.415 1.43 3.572 2.77.342 3.479-4.388 4.91-6.786.982-1.646 1.614-3.478 2.5-5.178 1.181-2.27 2.16-4.693 3.75-6.697 1.152-1.452 2.854-2.383 4.107-3.75 1.291-1.409 2.302-3.05 3.482-4.553 1.7-2.165 5.179-6.429 5.179-6.429s-3.946 7.14-6.429 10.357c-1.48 1.916-3.503 3.365-5 5.268-.745.947-1.43 1.955-1.964 3.035-.784 1.587-1.273 3.307-1.786 5-.107.353-.55.836-.268 1.072 1.934 1.611 4.506-2.274 6.875-3.125 1.828-.657 3.758-.984 5.625-1.518 1.585-.453 3.288-.635 4.732-1.429 3.237-1.777 8.393-7.232 8.393-7.232s-4.669 5.417-7.59 7.41c-1.968 1.345-4.312 2.04-6.517 2.947-2.055.845-4.216 1.427-6.25 2.322-1.316.578-2.62 1.203-3.84 1.964-1.388.867-2.813 1.747-3.928 2.946-1.276 1.373-2.098 3.11-3.036 4.732-1.458 2.525-3.026 5.027-4.017 7.768-.612 1.691-2.096 3.732-1.161 5.268.24.395.877.372 1.34.357 1.598-.048 3.063-.933 4.553-1.517 1.004-.395 2.065-.717 2.946-1.34 1.857-1.312 3.32-3.13 4.732-4.91 1.431-1.805 1.817-4.552 3.75-5.804 1.643-1.064 3.875-.563 5.804-.893 2.06-.352 4.175-.509 6.16-1.16 1.632-.536 3.29-1.176 4.644-2.233 1.615-1.262 2.65-3.13 3.928-4.732 2.105-2.638 6.16-8.036 6.16-8.036s-4.845 9.53-8.66 13.125c-1.126 1.061-4.242.791-4.018 2.322.262 1.785 3.485.972 5.268 1.25 1.947.303 3.924.52 5.893.446.993-.037 1.967-.278 2.946-.446 3.107-.534 6.354-.629 9.286-1.786.883-.349 2.41-1.518 2.41-1.518s-6.705 4.047-10.445 5c-2.195.56-4.522.414-6.786.357-2.901-.072-5.778-.552-8.66-.892-1.79-.212-3.563-.866-5.358-.715-1.304.11-2.583.57-3.75 1.161-1.024.52-1.881 1.323-2.768 2.054-2.146 1.768-4.279 3.577-6.16 5.625-1.322 1.437-2.252 3.204-3.572 4.642-.982 1.072-2.15 1.957-3.214 2.947-.54.502-1.797.806-1.607 1.518.228.858 1.712.485 2.59.625 1.857.296 3.743.444 5.624.446 2.329.003 4.676-.11 6.965-.536 2.138-.398 4.3-.91 6.25-1.875 1.68-.831 3.146-2.064 4.553-3.303 2.023-1.782 5.536-5.893 5.536-5.893s-4.118 6.45-6.964 8.929c-.986.858-3.832.733-3.393 1.964 1.063 2.982 6.393-.453 9.375-1.518 3.24-1.157 7.027-2.821 10-4.554 1.221-.711 1.186-2.595 2.589-2.768 5.587-.687 13.66-3.303 13.66-3.303s-9.258 2.442-13.213 4.464c-1.617.827-2.334 2.02-3.84 3.036-1.265.855-2.795 1.092-4.107 1.875-1.6.956-2.875 2.71-4.642 3.303-3.795 1.276-7.917 1.189-11.875 1.786-1.965.297-3.936.554-5.893.893-2.6.45-5.391.373-7.768 1.518-.704.339-1.42.827-1.786 1.518-.657 1.244-.531 2.792-.446 4.196.072 1.19-.162 2.784.803 3.482 3.415 2.47 8.38-.967 12.59-1.16 3.121-.144 6.25.07 9.374 0 1.966-.045 3.992.235 5.893-.268 2.972-.787 6-2.064 8.214-4.197 1.45-1.395 1.541-3.828 2.947-5.268 2.125-2.176 5.01-3.571 7.857-4.642 2.41-.907 7.59-1.429 7.59-1.429s-6.72 1.551-9.554 3.393c-2.03 1.32-3.282 3.562-5 5.268-1.794 1.78-3.49 3.694-5.536 5.178-1.898 1.377-3.912 2.73-6.16 3.393-3.234.955-6.733.4-10.09.715-3.311.31-6.706.27-9.91 1.16-2.015.56-3.921 1.514-5.715 2.59-1.383.829-2.812 1.702-3.839 2.946-1.101 1.335-2.106 2.926-2.321 4.643z" transform="matrix(2.16247 0 0 2.31802 1300.498 -782.446)"/><path d="M-469.91 512.18s-4.699.52-6.124 2.147c-1.09 1.245-1.01 4.861-1.01 4.861s3.923-.37 5.24-1.641c1.365-1.318 1.894-5.367 1.894-5.367zM-484.37 504.04s4.264-1.088 6.25-.442c2.145.698 5.177 4.356 5.177 4.356s-4.725 2.045-6.945 1.263c-2.153-.758-4.482-5.177-4.482-5.177zM-471.24 502.08s-.557 2.828-.063 4.104c.7 1.804 3.977 4.23 3.977 4.23s.565-3.624-.189-5.177c-.711-1.464-3.725-3.157-3.725-3.157zM-463.66 505.74s2.47-1.043 3.41-1.957c.81-.791 1.767-2.904 1.767-2.904s-2.773.145-3.725 1.01c-1.015.922-1.452 3.851-1.452 3.851zM-455.96 504.86s-1.686 2.605-1.389 3.978c.277 1.28 2.715 2.84 2.715 2.84s1.353-2.36 1.136-3.598c-.233-1.331-2.462-3.22-2.462-3.22zM-440.05 505.18s-.674 2.326-.316 3.41c.525 1.584 3.346 3.724 3.346 3.724s1.173-3.295.505-4.735c-.599-1.292-3.535-2.399-3.535-2.399zM-450 506.87s.58-2.644 1.473-3.571c1.192-1.238 4.688-2.143 4.688-2.143s-.462 2.9-1.429 3.884c-1.186 1.205-4.732 1.83-4.732 1.83zM-438.39 494.1s.056 3.016.759 4.286c.71 1.281 3.259 2.946 3.259 2.946s.261-2.852-.357-4.062c-.735-1.438-3.661-3.17-3.661-3.17zM-482.59 494.15s.45 3.89 1.875 4.91c1.308.937 4.821.18 4.821.18s-.986-3.171-2.232-4.108c-1.218-.916-4.464-.982-4.464-.982zM-471.88 490.4s.946 3.638 2.143 5c1.118 1.273 4.375 2.59 4.375 2.59s-.043-3.808-1.16-5.18c-1.239-1.517-5.358-2.41-5.358-2.41zM-453.04 498.43s0-2.493-.536-3.571c-.758-1.527-3.571-3.661-3.571-3.661s.222 4 1.34 5.536c.636.875 2.767 1.696 2.767 1.696z" transform="matrix(2.16247 0 0 2.31802 1300.498 -782.446)"/><path d="M-462.84 490.78s1.973-1.382 3.094-1.326c1.345.068 3.535 1.957 3.535 1.957s-1.977 2.221-3.283 2.147c-1.447-.082-3.346-2.778-3.346-2.778zM-448 495.33s-.338-2.32.253-3.22c.64-.976 3.093-1.641 3.093-1.641s.092 2.273-.505 3.156c-.619.915-2.841 1.705-2.841 1.705zM-456.08 483.08s.636 2.676 1.515 3.662c1.01 1.132 3.978 2.21 3.978 2.21s-.355-3.202-1.39-4.294c-1.007-1.064-4.103-1.578-4.103-1.578zM-463.66 486.68s2.452-1.485 3.41-2.525c1.055-1.148 2.461-3.978 2.461-3.978s-4.19.46-5.366 1.957c-.942 1.2-.505 4.546-.505 4.546zM-476.73 482.26s2.985-1.883 4.672-1.957c1.59-.07 4.546 1.452 4.546 1.452s-2.515 2.578-4.167 2.715c-1.832.151-5.051-2.21-5.051-2.21zM-431.97 485.04s-.622 2.404-.442 3.599c.23 1.527 1.894 4.23 1.894 4.23s2.412-3.457 1.894-5.24c-.393-1.355-3.346-2.589-3.346-2.589zM-468.27 472.35s2.995 1.233 4.04 2.4c1.019 1.135 1.895 4.166 1.895 4.166s-3.606-1.088-4.736-2.462c-.904-1.101-1.2-4.104-1.2-4.104zM-464.86 466.54s3.3 1.283 4.483 2.525c.94.989 1.83 3.662 1.83 3.662s-3.758.159-4.987-1.01c-1.291-1.227-1.326-5.177-1.326-5.177zM-444.21 473.67s1.43 2.21 1.578 3.472c.128 1.087-.63 3.22-.63 3.22s-1.456-2.425-1.58-3.788c-.089-.986.632-2.904.632-2.904zM-440.36 478.28s2.623-.457 3.914-.253c1.633.259 4.61 1.831 4.61 1.831s-2.835 2.132-4.42 1.894c-1.772-.265-4.104-3.472-4.104-3.472zm-14.332-8.46s3.725-.787 5.619-.884c2.336-.12 7.008.379 7.008.379s-4.08 3.498-6.566 3.535c-2.259.035-6.061-3.03-6.061-3.03zM-458.92 460.92s3.685-.547 5.24.253c1.6.822 3.346 4.23 3.346 4.23s-4.069.863-5.745-.064c-1.532-.847-2.84-4.419-2.84-4.419zM-448.38 457.63s1.595 2.362 1.83 3.725c.254 1.46-.504 4.42-.504 4.42s-1.875-2.673-2.084-4.23c-.176-1.318.758-3.915.758-3.915zM-444.47 462.43s2.275-1.88 3.662-2.21c1.642-.391 5.05.38 5.05.38s-2.463 2.073-3.977 2.398c-1.554.334-4.735-.568-4.735-.568zM-437.65 464.64s1.783 1.629 2.21 2.715c.586 1.492.315 4.798.315 4.798s-1.958-2.315-2.399-3.725c-.376-1.206-.126-3.788-.126-3.788zM-423.63 473.99s1.989 3.888 2.02 5.998c.034 2.243-1.957 6.44-1.957 6.44s-2.908-4.586-2.778-7.135c.101-1.983 2.715-5.303 2.715-5.303zM-436.83 455.3c.396-1.69 3.283-4.04 3.283-4.04s.98 3.306.631 4.924c-.363 1.69-2.714 4.42-2.714 4.42s-1.613-3.54-1.2-5.304zM-445.1 450.69s4.195.932 5.493 2.462c1.07 1.262 1.262 4.798 1.262 4.798s-4.105.385-5.43-.883c-1.567-1.502-1.325-6.377-1.325-6.377zM-428.3 464.33s3.576.035 5.114.82c1.802.921 4.293 4.294 4.293 4.294s-3.558.954-5.114.252c-2.088-.94-4.293-5.366-4.293-5.366zM-428.12 454.16s1.719-3.633 1.136-5.366c-.665-1.98-4.735-4.104-4.735-4.104s-.858 3.64-.252 5.303c.647 1.777 3.851 4.167 3.851 4.167zM-420.41 449.49s1.335 3.986.884 5.935c-.536 2.314-4.04 5.871-4.04 5.871s-.924-4.768-.253-7.008c.562-1.88 3.409-4.798 3.409-4.798zm3.472 12.879s2.892.455 3.915 1.389c1.523 1.39 2.588 5.619 2.588 5.619s-3.34-.997-4.482-2.21c-1.19-1.263-2.02-4.798-2.02-4.798zM-416.88 455.99s4.181-.835 5.998 0c2.142.984 4.609 5.366 4.609 5.366s-5.197.178-7.324-1.073c-1.553-.913-3.283-4.293-3.283-4.293zM-414.92 443.24s4.342 1.239 5.872 2.715c1.42 1.37 2.84 5.556 2.84 5.556s-5.28-.254-6.818-1.453c-2.133-1.662-1.894-6.818-1.894-6.818zM-399.39 446.59s-3.257-.02-4.483.884c-1.212.894-2.146 3.977-2.146 3.977s3.386 1.41 4.735.569c1.626-1.015 1.894-5.43 1.894-5.43zM-410.69 474.81c1.661-.877 5.619-.442 5.619-.442s-1.92 2.89-3.346 3.788c-1.888 1.19-6.44 1.831-6.44 1.831s2.208-4.143 4.167-5.177zm-3.094 17.236s4.094-2.34 5.367-4.23c1.224-1.817 1.83-6.313 1.83-6.313s-3.894 1.907-5.113 3.598c-1.413 1.961-2.084 6.945-2.084 6.945zM-394.09 471.08s-3.048.718-4.104 1.768c-1.563 1.555-2.651 6.06-2.651 6.06s4.258-1.567 5.555-3.282c.946-1.25 1.2-4.546 1.2-4.546zM-404.63 463.51s1.86.307 2.462.947c.954 1.013 1.263 3.978 1.263 3.978s-2.342-.465-3.03-1.326c-.764-.954-.695-3.599-.695-3.599zM-400.02 454.6s-2.466 3.572-2.083 5.493c.39 1.956 4.103 4.356 4.103 4.356s.756-3.878.316-5.745c-.36-1.532-2.336-4.104-2.336-4.104zM-390.55 447.28s-3.976 2.054-4.672 3.978c-.8 2.209 1.2 6.944 1.2 6.944s3.906-2.642 4.545-4.735c.612-2.002-1.073-6.187-1.073-6.187zM-394.15 465.65s2.61.042 3.535.82c.91.766 1.39 3.284 1.39 3.284s-2.302-.15-3.157-.821c-.978-.768-1.768-3.283-1.768-3.283zM-389.92 460.16s1.886 1.546 2.462 2.588c.536.97.821 3.22.821 3.22s-2.302-.757-2.904-1.704c-.737-1.16-.38-4.104-.38-4.104zM-385.69 453.4s2.97 1.497 3.599 2.904c.68 1.52-.253 4.988-.253 4.988s-3.2-1.335-3.851-2.778c-.704-1.562.505-5.114.505-5.114zM-372.87 449.3s-3.767.866-4.735 2.336c-.881 1.337-.253 4.798-.253 4.798s3.4-.366 4.357-1.578c1.154-1.463.631-5.556.631-5.556zM-382.09 466.47s-1.812 1.93-1.812 3.138c0 1.28 1.918 3.323 1.918 3.323s2.037-2.113 1.983-3.434c-.05-1.225-2.089-3.027-2.089-3.027zM-374.45 461.99s-1.602 2.015-1.865 3.23c-.432 2.001.602 6.114.602 6.114s3.27-3.504 3.289-5.696c.011-1.39-2.026-3.648-2.026-3.648zM-395.6 486.99s2.653-2.77 4.42-3.22c1.563-.398 4.798.631 4.798.631s-2.316 2.197-3.789 2.652c-1.729.534-5.43-.063-5.43-.063zM-382.66 478.22s1.76 1.62 1.894 2.715c.222 1.812-1.957 5.114-1.957 5.114s-1.87-2.607-1.831-4.104c.035-1.392 1.894-3.725 1.894-3.725zM-376.22 477.08s1.709 1.95 1.825 3.16c.152 1.595-1.573 4.542-1.573 4.542s-1.808-2.156-1.894-3.472c-.097-1.51 1.642-4.23 1.642-4.23zM-366.96 462.63c1.44-1.369 5.714-1.696 5.714-1.696s-1.42 4.334-3.035 5.803c-1.284 1.168-4.822 1.965-4.822 1.965s.588-4.593 2.143-6.072zM-370.89 470.76s1.94-1.71 3.125-1.696c1.373.016 3.571 2.053 3.571 2.053s-2.026 1.19-3.392 1.072c-.885-.077-3.304-1.429-3.304-1.429zM-368.93 472.72s2.059 1.464 2.41 2.59c.683 2.18-.981 6.785-.981 6.785s-3.383-3.626-3.393-5.893c-.006-1.332 1.964-3.482 1.964-3.482zM-353.66 464.33s-4.997 1.575-6.16 3.66c-.856 1.534.089 5.269.089 5.269s3.277-.686 4.285-1.875c1.569-1.85 1.786-7.054 1.786-7.054zM-359.73 485.67s3.093-1.924 3.84-3.482c.656-1.371.267-4.554.267-4.554s-3.006 1.61-3.75 3.036c-.773 1.482-.357 5-.357 5zM-352.23 485.67s1.975-4.769 4.107-5.804c2.091-1.014 6.964.358 6.964.358s-1.632 4.747-3.66 5.803c-2.194 1.142-7.411-.357-7.411-.357zM-380.27 491.92s1.428 4.595.804 6.786c-.772 2.709-5.268 6.607-5.268 6.607.41.204.927-4.76.446-7.947-.336-2.23 4.018-5.446 4.018-5.446zM-375.45 493.08s2.853 1.193 3.66 2.41c.904 1.363.894 4.822.894 4.822s-2.683-1.587-3.483-2.857-1.07-4.375-1.07-4.375zM-371.34 488.88s2.464 1.097 3.214 2.143c1.006 1.402 1.34 5 1.34 5s-2.742-1.91-3.572-3.304c-.676-1.135-.982-3.839-.982-3.839zM-364.82 493.61s-.912-3.037 0-4.018c1.381-1.486 6.071-.446 6.071-.446s-1.18 2.916-2.41 3.75c-1.03.698-3.661.714-3.661.714zM-366.88 497.01s3.183-1.382 4.821-1.16c1.28.172 3.929 1.874 3.393 1.874s-2.32 1.204-3.571 1.161c-1.668-.058-4.643-1.875-4.643-1.875zM-354.11 488.79s2.17 1.568 2.41 2.768c.351 1.753-1.696 5.09-1.696 5.09s-2.676-2.395-2.768-4.019c-.08-1.449 2.054-3.839 2.054-3.839zM-347.59 494.24s-.685-3.395.357-4.464c1.379-1.415 5.893-.625 5.893-.625s-.686 2.773-1.696 3.66c-1.196 1.05-4.554 1.429-4.554 1.429zM-383.04 506.92s3.197 1.945 4.554 3.214c1.035.969 2.678 3.304 2.678 3.304s-3.548-.106-4.821-1.16c-1.508-1.25-2.41-5.358-2.41-5.358zM-369.11 508.52s1.556 2.785 1.429 4.286c-.161 1.884-2.679 5-2.679 5s-1.776-3.338-1.518-5.09c.245-1.657 2.768-4.196 2.768-4.196zM-358.93 503.34s1.903 3.395 1.964 5.268c.071 2.174-1.875 6.25-1.875 6.25s-2.5-5.625-2.589-6.25c-.09-.625 2.5-5.268 2.5-5.268zM-345.8 496.65s-3.043.943-3.66 2.232c-.895 1.868.803 6.16.803 6.16s2.18-2.486 2.678-4.017c.452-1.388.179-4.375.179-4.375zM-342.41 502.09s1.28-3.115 2.679-3.75c1.933-.878 6.339.625 6.339.625s-2.058 3.525-3.84 4.107c-1.67.546-5.178-.982-5.178-.982zM-352.32 510.67s3.656-1.707 5.625-1.875c2.16-.184 6.429.982 6.429.982s-4.146 3.246-6.607 3.304c-1.985.046-5.447-2.411-5.447-2.411z" transform="matrix(2.16247 0 0 2.31802 1300.498 -782.446)"/></g></svg>