<svg xmlns="http://www.w3.org/2000/svg" width="763.35315" height="351.25003" viewBox="0 0 201.97052 92.934907"><path fill="#fff" d="M-2e-7.00001h201.97052v92.934906H-2e-7z"/><path fill="none" stroke="#000" stroke-miterlimit="51" stroke-width=".5291667" d="M4.2333338 9.49657h47.472603v69.472603H4.2333338z"/><path fill="#deaa87" d="M5.8148388 11.43435h44.031487v8.3358107H5.8148388zM5.8148388 72.86011h44.031487v4.5397744H5.8148388z"/><path fill="#e9ddaf" d="M5.8148388 20.82882h14.459316v51.056927H5.8148388z"/><path fill="#dde9af" d="M21.5128968 20.82882h28.333426v31.156502h-28.333426z"/><path fill="#dbe3e2" d="M21.5128968 53.17431h28.333426v18.711437h-28.333426z"/><path stroke="#030000" stroke-width=".5291667" d="M5.8148388 80.89909v8.06707M5.8656298 86.13924h1.84777"/><text x="14.474032" y="255.21268" stroke-width=".26458332" font-family="sans-serif" font-size="10.58333302" font-weight="400" letter-spacing="0" style="line-height:1.25" transform="translate(-6.0312502 -167.8464)" word-spacing="0"><tspan x="14.474032" y="255.21268" font-size="3.52777767">/v1/lit-html.js <tspan fill="red">(fetched)</tspan></tspan></text><text x="9.8829927" y="175.03801" stroke-width=".26458332" font-family="sans-serif" font-size="10.58333302" font-weight="400" letter-spacing="0" style="line-height:1.25" transform="translate(-6.0312502 -167.8464)" word-spacing="0"><tspan x="9.8829927" y="175.03801" font-size="4.23333359">site.com</tspan></text><path fill="none" stroke="#000" stroke-miterlimit="51" stroke-width=".52916676" d="M77.2645868 9.49654h47.472603v69.472603h-47.472603z"/><path fill="#deaa87" d="M78.8460998 11.43432h44.031487v8.3358107h-44.031487zM78.8460998 72.86008h44.031487v4.5397744h-44.031487z"/><path fill="#e9ddaf" d="M78.8460998 20.82879h14.459316v30.974707h-14.459316z"/><path fill="#dde9af" d="M94.5441498 20.82879h28.333427v20.460535h-28.333427z"/><path fill="#dbe3e2" d="M78.9003908 53.17429h43.977188v18.711437h-43.977188z"/><path fill="#999" stroke="#000" stroke-width=".5291667" d="M78.8460938 80.89908v8.06708"/><path fill="#999" stroke="#000" stroke-width=".52916676" d="M78.8968848 86.13923h1.84777"/><text x="87.505287" y="255.21266" stroke-width=".26458332" font-family="sans-serif" font-size="10.58333302" font-weight="400" letter-spacing="0" style="line-height:1.25" transform="translate(-6.0312502 -167.8464)" word-spacing="0"><tspan x="87.505287" y="255.21266" font-size="3.52777767">/v1/lit-html.js <tspan fill="green">(cached)</tspan></tspan></text><path fill="#e2dbe3" d="M94.7433898 42.42815h27.940483v9.2407331h-27.940483z"/><text x="83.104813" y="175.03149" stroke-width=".26458332" font-family="sans-serif" font-size="10.58333302" font-weight="400" letter-spacing="0" style="line-height:1.25" transform="translate(-6.0312502 -167.8464)" word-spacing="0"><tspan x="83.104813" y="175.03149" font-size="4.23333359">site.com/shop</tspan></text><path fill="none" stroke="#000" stroke-miterlimit="51" stroke-width=".52916676" d="M150.2645898 9.49657h47.472603v69.472603h-47.472603z"/><path fill="#deaa87" d="M151.8460798 11.43435h44.031487v8.3358107h-44.031487zM151.8460798 72.8601h44.031487v4.5397744h-44.031487z"/><path fill="#dde9af" d="M152.0458998 20.82882h43.831665v31.156502h-43.831665z"/><path fill="#e2dbe3" d="M152.1914398 53.17431h43.686142v18.711437h-43.686142z"/><path fill="#999" stroke="#000" stroke-width=".5291667" d="M151.8460898 80.89909v8.06707"/><path fill="#999" stroke="#000" stroke-width=".52916676" d="M151.8968898 86.13924h1.84777"/><text x="160.50528" y="255.21268" stroke-width=".26458332" font-family="sans-serif" font-size="10.58333302" font-weight="400" letter-spacing="0" style="line-height:1.25" transform="translate(-6.0312502 -167.8464)" word-spacing="0"><tspan x="160.50528" y="255.21268" font-size="3.52777767">/v1/lit-html.js <tspan fill="green">(cached)</tspan></tspan></text><text x="156.03203" y="175.17705" stroke-width=".26458332" font-family="sans-serif" font-size="10.58333302" font-weight="400" letter-spacing="0" style="line-height:1.25" transform="translate(-6.0312502 -167.8464)" word-spacing="0"><tspan x="156.03203" y="175.17705" font-size="4.23333359">site.com/checkout</tspan></text><path fill="#999" d="M74.1628168 42.00765l-7.887361-4.53872v3.58324h-12.594342V42.918h12.594342v3.60444zM147.6802698 42.00765l-7.88736-4.53872v3.58324h-12.59434V42.918h12.59434v3.60444z"/></svg>