<svg xmlns="http://www.w3.org/2000/svg" width="979.99994" height="330" viewBox="0 0 259.29164 87.312502"><path fill="#cdde87" d="M3.9687498 56.885416h26.458334V83.34375H3.9687498z"/><path fill="#999" d="M54.0483768 74.238405l-7.887361-4.53872v3.58324h-12.594342v1.86583h12.594342v3.60444z"/><path fill="#cdde87" d="M56.8847448 56.885416h26.458334V83.34375h-26.458334zM109.8014088 56.885416h26.458334V83.34375h-26.458334zM162.7180788 56.885416h26.458334V83.34375h-26.458334z"/><text x="22.153793" y="42.228508" stroke-width=".26458332" font-family="sans-serif" font-size="10.58333302" font-weight="400" letter-spacing="0" style="line-height:1.25" transform="translate(-9.2610912 37.697933)" word-spacing="0"><tspan x="22.153793" y="42.228508" font-size="4.23333406">source</tspan></text><path fill="#999" d="M106.9042188 74.238405l-7.88737-4.53872v3.58324h-12.594338v1.86583h12.594338v3.60444zM160.1466588 74.238405l-7.88736-4.53872v3.58324h-12.59434v1.86583h12.59434v3.60444z"/><text x="78.592728" y="42.218086" stroke-width=".26458332" font-family="sans-serif" font-size="10.58333302" font-weight="400" letter-spacing="0" style="line-height:1.25" transform="translate(-9.2610912 37.697933)" word-spacing="0"><tspan x="78.592728" y="42.218086" font-size="4.23333406">build</tspan></text><text x="134.94876" y="42.280357" stroke-width=".26458332" font-family="sans-serif" font-size="10.58333302" font-weight="400" letter-spacing="0" style="line-height:1.25" transform="translate(-9.2610912 37.697933)" word-spacing="0"><tspan x="134.94876" y="42.280357" font-size="4.23333406">out</tspan></text><text x="181.02997" y="42.093544" stroke-width=".26458332" font-family="sans-serif" font-size="10.58333302" font-weight="400" letter-spacing="0" style="line-height:1.25" transform="translate(-9.2610912 37.697933)" word-spacing="0"><tspan x="181.02997" y="42.093544" font-size="4.23333406">upload</tspan></text><path fill="#ffd42a" d="M56.8854158 3.96875h132.29167v26.458334h-132.29167z"/><path fill="#b7c8be" d="M215.6354088 3.96875h39.6875v26.458334h-39.6875z"/><path fill="#999" d="M247.2482188 73.282925h-52.65947v1.86583h52.65947zM77.3687698 54.150947l4.53871-7.8873595h-3.58323V33.6692478h-1.86583v12.5943397h-3.60444zM182.7311788 54.150947l4.53871-7.8873598h-3.58323v-12.594339h-1.86583v12.594339h-3.60444zM168.5571288 33.6692377l-4.53872 7.88736h3.58324V54.150947h1.86583V41.5565977h3.60444z"/><text x="122.87846" y="-17.890074" stroke-width=".26458332" font-family="sans-serif" font-size="10.58333302" font-weight="400" letter-spacing="0" style="line-height:1.25" transform="translate(-9.2610912 37.697933)" word-spacing="0"><tspan x="122.87846" y="-17.890074" font-size="4.23333454">Eik server</tspan></text><text x="227.07436" y="-17.858913" stroke-width=".26458332" font-family="sans-serif" font-size="10.58333302" font-weight="400" letter-spacing="0" style="line-height:1.25" transform="translate(-9.2610912 37.697933)" word-spacing="0"><tspan x="227.07436" y="-17.858913" font-size="4.23333454">HTML Document</tspan></text><text x="89.944672" y="7.3983774" stroke-width=".26458332" font-family="sans-serif" font-size="10.58333302" font-weight="400" letter-spacing="0" style="line-height:1.25" transform="translate(-9.2610912 37.697933)" word-spacing="0"><tspan x="89.944672" y="7.3983774" font-size="4.23333454">import maps</tspan></text><text x="161.39528" y="7.4107747" stroke-width=".26458332" font-family="sans-serif" font-size="10.58333302" font-weight="400" letter-spacing="0" style="line-height:1.25" transform="translate(-9.2610912 37.697933)" word-spacing="0"><tspan x="161.39528" y="7.4107747" font-size="4.23333454">assets</tspan></text><text x="194.89682" y="7.3462653" stroke-width=".26458332" font-family="sans-serif" font-size="10.58333302" font-weight="400" letter-spacing="0" style="line-height:1.25" transform="translate(-9.2610912 37.697933)" word-spacing="0"><tspan x="194.89682" y="7.3462653" font-size="4.23333454">integrity</tspan></text><path fill="#999" d="M246.3969288 33.6692368l-4.53872 7.88736h3.58324l-.004 16.7960802-.004 16.79608h1.81395l.0591-33.5921602h3.60444z"/></svg>